<svg version="1.1" id="Layer_1" xmlns="http://www.w3.org/2000/svg" xmlns:xlink="http://www.w3.org/1999/xlink" x="0px" y="0px"
	 width="200px" height="200px" viewBox="0 0 1280 720" enable-background="new 0 0 1280 720" xml:space="preserve">
<path class="logo-svg-path-bg"  opacity=".005" stroke="none" 
	d="
M844.000000,721.000000 
	C562.701721,721.000000 281.903473,721.000000 1.052602,721.000000 
	C1.052602,481.065033 1.052602,241.130081 1.052602,1.000000 
	C214.241623,1.000000 427.483307,1.000000 640.724976,1.000000 
	C854.031677,1.000000 1067.338379,1.000000 1280.822510,1.000000 
	C1280.822510,240.999893 1280.822510,480.999939 1280.822510,721.000000 
	C1135.463257,721.000000 989.981628,721.000000 844.000000,721.000000 
M915.133545,370.387573 
	C915.667419,369.769836 916.201294,369.152069 916.998779,368.229340 
	C914.883606,368.501617 911.285461,365.638580 912.087402,370.994781 
	C911.511719,371.408508 910.936035,371.822205 910.360291,372.235870 
	C911.321838,373.021515 912.352600,374.520050 913.229675,374.434967 
	C914.755371,374.286987 916.186340,373.161438 917.656982,372.445740 
	C916.849060,371.960327 916.041077,371.474945 915.133545,370.387573 
M498.852722,394.784515 
	C499.247131,396.831604 499.641541,398.878693 500.062500,401.063751 
	C510.250549,399.802643 519.955688,398.601318 529.820129,397.380280 
	C529.820129,365.434509 529.820129,333.824127 529.820129,302.022491 
	C528.770691,301.687683 527.690369,301.276031 526.576843,300.997711 
	C504.976898,295.599945 483.397736,290.114319 461.739563,284.960815 
	C458.969452,284.301636 455.432190,284.614349 452.844971,285.787872 
	C427.592438,297.242096 402.466003,308.974243 377.304871,320.629913 
	C372.976898,322.634827 368.654755,324.652252 364.171387,326.737610 
	C371.940613,356.296021 379.611206,385.479248 387.344025,414.899170 
	C393.375305,414.132690 399.062714,413.409943 404.943481,412.662598 
	C403.486786,395.680267 402.307526,379.084045 400.490845,362.557892 
	C399.972870,357.845795 401.192078,355.751465 405.953583,355.112762 
	C409.254700,373.698914 412.560272,392.310120 415.942139,411.350952 
	C426.122345,410.106903 435.941284,408.906982 446.030090,407.674103 
	C445.866882,405.457855 445.757782,403.653748 445.597778,401.854218 
	C444.093353,384.935730 442.704681,368.005402 440.986969,351.108521 
	C440.526886,346.582520 442.260193,344.842194 446.527527,344.513611 
	C450.165253,365.084686 453.773895,385.491241 457.450104,406.279968 
	C467.821991,404.995544 477.801300,403.759766 487.921082,402.506561 
	C486.104950,381.574982 484.514496,361.161621 482.433136,340.798401 
	C481.945251,336.025238 482.982086,333.731049 487.931976,333.505585 
	C491.523254,353.665619 495.110443,373.802826 498.852722,394.784515 
M755.477234,429.082520 
	C759.985352,414.001495 764.493469,398.920471 769.001587,383.839447 
	C769.561279,383.939301 770.120972,384.039185 770.680664,384.139038 
	C770.680664,401.969269 770.680664,419.799500 770.680664,437.498779 
	C776.287476,437.498779 781.199219,437.498779 786.172974,437.498779 
	C786.172974,413.807129 786.172974,390.431427 786.172974,366.952148 
	C777.090515,366.952148 768.320984,366.952148 759.404968,366.952148 
	C754.807495,382.847809 750.250305,398.604126 745.693176,414.360413 
	C745.198853,414.320221 744.704529,414.280029 744.210205,414.239838 
	C739.642273,398.424347 735.074341,382.608826 730.583496,367.060059 
	C721.250305,367.060059 712.490662,367.060059 703.854004,367.060059 
	C703.854004,390.774506 703.854004,414.182190 703.854004,437.545410 
	C709.118713,437.545410 714.040039,437.545410 719.720154,437.545410 
	C719.720154,419.533417 719.720154,401.777985 719.720154,384.022583 
	C720.269470,383.941833 720.818787,383.861084 721.368103,383.780334 
	C726.611267,401.765137 731.854431,419.749969 737.060730,437.608337 
	C742.529907,437.608337 747.640747,437.608337 752.910095,437.608337 
	C753.700378,434.921997 754.448425,432.379456 755.477234,429.082520 
M617.299561,341.087189 
	C616.880493,339.826660 616.468933,338.563599 616.041138,337.306061 
	C613.178284,328.890991 613.175720,328.937988 604.391418,328.659210 
	C602.932373,328.612885 601.492554,327.958862 599.338928,327.404022 
	C600.611206,326.448853 600.828796,326.172516 601.102051,326.096588 
	C612.444214,322.946259 618.124573,316.528107 618.038330,306.934570 
	C617.941711,296.187622 611.651245,287.034790 600.838806,285.518280 
	C588.776489,283.826508 576.419067,284.238861 564.158691,283.734100 
	C564.158691,308.183258 564.158691,331.582031 564.158691,354.967102 
	C569.534729,354.967102 574.627563,354.967102 580.083008,354.967102 
	C580.083008,346.749695 580.083008,338.803589 580.083008,330.609497 
	C584.588867,330.609497 588.744934,330.832306 592.863464,330.535126 
	C595.862976,330.318695 596.878723,331.697235 597.668579,334.237335 
	C599.830627,341.190918 602.218018,348.074493 604.483276,354.886780 
	C610.489380,354.886780 616.194702,354.886780 622.074646,354.886780 
	C620.517090,350.270874 619.086975,346.032837 617.299561,341.087189 
M590.431213,380.338562 
	C597.945312,379.243744 604.366333,380.492188 608.012939,388.191956 
	C608.388733,388.985504 609.747742,389.740570 610.676392,389.772919 
	C615.292053,389.933716 619.916443,389.846313 625.064697,389.846313 
	C624.164185,386.987366 623.658875,384.537323 622.650269,382.315796 
	C614.971252,365.403046 589.550415,360.147247 574.118530,372.226074 
	C563.234924,380.744904 560.353638,392.431519 560.885681,405.513123 
	C561.847961,429.175140 581.614807,443.612762 604.475647,437.361450 
	C618.944580,433.404968 628.331543,420.945801 625.001526,399.488892 
	C615.276184,399.488892 605.547791,399.488892 595.751221,399.488892 
	C595.751221,403.500305 595.751221,407.202209 595.751221,411.310547 
	C600.680359,411.310547 605.243042,411.310547 609.818970,411.310547 
	C609.253174,418.157104 606.202026,422.115753 600.507019,423.761810 
	C590.276794,426.718658 580.833923,421.923492 578.555603,411.532074 
	C577.311646,405.858643 577.475098,399.631195 578.261353,393.823853 
	C579.131104,387.400330 583.127686,382.652374 590.431213,380.338562 
M691.353210,356.093872 
	C710.268005,354.869873 722.075256,341.222748 722.346191,320.271393 
	C722.690613,293.630463 701.730469,277.165253 677.527832,285.064514 
	C663.957458,289.493683 655.945190,301.461517 655.251038,318.339081 
	C654.310242,341.214386 668.199646,356.144958 691.353210,356.093872 
M650.626465,366.801941 
	C649.989502,368.115204 649.202454,369.377655 648.738342,370.749390 
	C642.093994,390.385223 635.488281,410.034149 628.888062,429.684845 
	C628.023376,432.259399 627.240173,434.861298 626.301819,437.820770 
	C631.467896,437.820770 635.967590,438.029724 640.425720,437.691223 
	C641.733276,437.591919 643.561340,436.189789 644.049744,434.950714 
	C645.678589,430.818207 646.807922,426.488800 648.172424,422.093781 
	C655.872559,422.093781 663.356628,422.256897 670.826843,422.006744 
	C673.497925,421.917297 674.246399,423.171600 674.834595,425.232269 
	C676.009460,429.348602 677.255310,433.444702 678.490967,437.613953 
	C684.219971,437.613953 689.649597,437.613953 695.666016,437.613953 
	C687.650574,413.734497 679.757141,390.218445 671.881592,366.755524 
	C664.758423,366.755524 658.106628,366.755524 650.626465,366.801941 
M899.727722,387.574097 
	C902.705994,387.574097 905.684265,387.574097 910.273193,387.574097 
	C908.137146,382.739014 907.085449,378.251007 904.515930,374.941559 
	C897.126038,365.423920 879.995483,362.836731 867.776855,368.782867 
	C859.203003,372.955322 854.450806,380.385284 855.121277,389.007629 
	C855.827515,398.090790 861.675537,402.761841 869.743530,405.271423 
	C875.764038,407.144104 881.857727,408.782410 887.871704,410.674866 
	C891.232605,411.732513 894.671143,413.857880 893.609619,417.595734 
	C892.849365,420.272797 889.997559,423.297516 887.360718,424.326385 
	C878.863586,427.641876 871.609070,423.793549 868.228516,415.155701 
	C863.256470,415.155701 858.349915,415.155701 853.438782,415.155701 
	C853.554016,424.408142 857.252502,431.275818 865.470703,435.049042 
	C876.297729,440.020081 887.447998,440.021790 898.337708,435.394348 
	C906.087708,432.101105 909.977478,425.762390 910.069397,417.266815 
	C910.160950,408.802460 905.801636,403.100494 898.456909,399.636444 
	C895.037903,398.023926 891.278625,397.123138 887.655762,395.955048 
	C883.561462,394.634918 879.269348,393.764343 875.390625,391.984711 
	C871.385193,390.146912 870.598022,385.516083 873.153809,382.387024 
	C877.320496,377.285797 889.788879,377.977539 892.432129,383.958313 
	C893.958679,387.412262 895.876953,387.826111 899.727722,387.574097 
M840.280212,403.359558 
	C840.280212,400.909363 840.280212,398.459167 840.280212,395.722778 
	C831.335449,395.722778 822.879211,395.722778 814.264832,395.722778 
	C814.264832,390.343231 814.264832,385.261810 814.264832,379.764404 
	C825.097229,379.764404 835.677307,379.764404 846.412964,379.764404 
	C846.412964,375.276855 846.412964,371.210144 846.412964,366.950989 
	C830.194580,366.950989 814.241455,366.950989 798.188477,366.950989 
	C798.188477,390.526184 798.188477,413.954651 798.188477,437.430756 
	C814.455688,437.430756 830.488342,437.430756 846.599365,437.430756 
	C846.599365,433.079681 846.599365,429.119019 846.599365,424.609375 
	C835.726746,424.609375 825.005554,424.609375 814.212952,424.609375 
	C814.212952,419.119385 814.212952,414.181366 814.212952,408.930969 
	C822.857544,408.930969 831.303040,408.930969 840.058594,408.930969 
	C840.141907,407.168732 840.211121,405.705536 840.280212,403.359558 
M727.836243,297.392639 
	C735.884277,297.457092 743.932373,297.521545 751.980408,297.586029 
	C751.994141,298.171204 752.007812,298.756409 752.021545,299.341614 
	C749.607056,300.261292 747.083313,300.977417 744.825928,302.189728 
	C743.756836,302.763855 742.518738,304.280792 742.508850,305.380920 
	C742.361694,321.839386 742.407104,338.299561 742.407104,354.959106 
	C747.877441,354.959106 752.939636,354.959106 758.405396,354.959106 
	C758.405396,335.771210 758.405396,316.853943 758.405396,297.419556 
	C764.724060,297.419556 770.651489,297.419556 776.628052,297.419556 
	C776.628052,292.803467 776.628052,288.714264 776.628052,284.482117 
	C758.975281,284.482117 741.587585,284.482117 723.960083,284.482117 
	C723.960083,288.110077 723.739685,291.454346 724.095398,294.736145 
	C724.201172,295.711639 725.925232,296.511719 727.836243,297.392639 
M530.030212,427.440094 
	C530.030212,421.320618 530.030212,415.201172 530.030212,408.702423 
	C506.293945,411.619019 483.087036,414.470551 459.918121,417.317413 
	C460.093048,425.951294 460.101044,425.903198 467.571625,427.144043 
	C478.395935,428.941925 489.202179,430.848358 500.025635,432.651245 
	C509.917847,434.299042 519.822754,435.870789 530.030212,437.526031 
	C530.030212,434.046234 530.030212,431.229065 530.030212,427.440094 
M631.866089,284.192657 
	C631.262695,285.636444 630.145813,287.076263 630.134644,288.524628 
	C630.009888,304.674438 630.055908,320.825623 630.055908,336.976410 
	C630.055908,342.928986 630.055908,348.881561 630.055908,355.022644 
	C635.574158,355.022644 640.638916,355.022644 645.882080,355.022644 
	C645.882080,331.416809 645.882080,308.028595 645.882080,284.183136 
	C641.378601,284.183136 637.091492,284.183136 631.866089,284.192657 
z"/>
<path fill="#FDFDFD" opacity="1.000000" stroke="none" 
	d="
M498.775208,394.362274 
	C495.110443,373.802826 491.523254,353.665619 487.931976,333.505585 
	C482.982086,333.731049 481.945251,336.025238 482.433136,340.798401 
	C484.514496,361.161621 486.104950,381.574982 487.921082,402.506561 
	C477.801300,403.759766 467.821991,404.995544 457.450104,406.279968 
	C453.773895,385.491241 450.165253,365.084686 446.527527,344.513611 
	C442.260193,344.842194 440.526886,346.582520 440.986969,351.108521 
	C442.704681,368.005402 444.093353,384.935730 445.597778,401.854218 
	C445.757782,403.653748 445.866882,405.457855 446.030090,407.674103 
	C435.941284,408.906982 426.122345,410.106903 415.942139,411.350952 
	C412.560272,392.310120 409.254700,373.698914 405.953583,355.112762 
	C401.192078,355.751465 399.972870,357.845795 400.490845,362.557892 
	C402.307526,379.084045 403.486786,395.680267 404.943481,412.662598 
	C399.062714,413.409943 393.375305,414.132690 387.344025,414.899170 
	C379.611206,385.479248 371.940613,356.296021 364.171387,326.737610 
	C368.654755,324.652252 372.976898,322.634827 377.304871,320.629913 
	C402.466003,308.974243 427.592438,297.242096 452.844971,285.787872 
	C455.432190,284.614349 458.969452,284.301636 461.739563,284.960815 
	C483.397736,290.114319 504.976898,295.599945 526.576843,300.997711 
	C527.690369,301.276031 528.770691,301.687683 529.820129,302.022491 
	C529.820129,333.824127 529.820129,365.434509 529.820129,397.380280 
	C519.955688,398.601318 510.250549,399.802643 500.062500,401.063751 
	C499.641541,398.878693 499.247131,396.831604 498.775208,394.362274 
z"/>
<path fill="#FDFDFD" opacity="1.000000" stroke="none" 
	d="
M755.336792,429.459717 
	C754.448425,432.379456 753.700378,434.921997 752.910095,437.608337 
	C747.640747,437.608337 742.529907,437.608337 737.060730,437.608337 
	C731.854431,419.749969 726.611267,401.765137 721.368103,383.780334 
	C720.818787,383.861084 720.269470,383.941833 719.720154,384.022583 
	C719.720154,401.777985 719.720154,419.533417 719.720154,437.545410 
	C714.040039,437.545410 709.118713,437.545410 703.854004,437.545410 
	C703.854004,414.182190 703.854004,390.774506 703.854004,367.060059 
	C712.490662,367.060059 721.250305,367.060059 730.583496,367.060059 
	C735.074341,382.608826 739.642273,398.424347 744.210205,414.239838 
	C744.704529,414.280029 745.198853,414.320221 745.693176,414.360413 
	C750.250305,398.604126 754.807495,382.847809 759.404968,366.952148 
	C768.320984,366.952148 777.090515,366.952148 786.172974,366.952148 
	C786.172974,390.431427 786.172974,413.807129 786.172974,437.498779 
	C781.199219,437.498779 776.287476,437.498779 770.680664,437.498779 
	C770.680664,419.799500 770.680664,401.969269 770.680664,384.139038 
	C770.120972,384.039185 769.561279,383.939301 769.001587,383.839447 
	C764.493469,398.920471 759.985352,414.001495 755.336792,429.459717 
z"/>
<path fill="#FBFBFB" opacity="1.000000" stroke="none" 
	d="
M617.478271,341.440979 
	C619.086975,346.032837 620.517090,350.270874 622.074646,354.886780 
	C616.194702,354.886780 610.489380,354.886780 604.483276,354.886780 
	C602.218018,348.074493 599.830627,341.190918 597.668579,334.237335 
	C596.878723,331.697235 595.862976,330.318695 592.863464,330.535126 
	C588.744934,330.832306 584.588867,330.609497 580.083008,330.609497 
	C580.083008,338.803589 580.083008,346.749695 580.083008,354.967102 
	C574.627563,354.967102 569.534729,354.967102 564.158691,354.967102 
	C564.158691,331.582031 564.158691,308.183258 564.158691,283.734100 
	C576.419067,284.238861 588.776489,283.826508 600.838806,285.518280 
	C611.651245,287.034790 617.941711,296.187622 618.038330,306.934570 
	C618.124573,316.528107 612.444214,322.946259 601.102051,326.096588 
	C600.828796,326.172516 600.611206,326.448853 599.338928,327.404022 
	C601.492554,327.958862 602.932373,328.612885 604.391418,328.659210 
	C613.175720,328.937988 613.178284,328.890991 616.041138,337.306061 
	C616.468933,338.563599 616.880493,339.826660 617.478271,341.440979 
M599.157593,313.642578 
	C604.097168,306.012634 601.111206,298.856781 592.218567,297.683624 
	C588.355713,297.174011 584.369629,297.598053 580.190186,297.598053 
	C580.190186,303.993042 580.190186,310.339600 580.190186,318.210754 
	C586.702271,316.795532 592.666809,315.499298 599.157593,313.642578 
z"/>
<path fill="#FAFAFA" opacity="1.000000" stroke="none" 
	d="
M590.043213,380.462402 
	C583.127686,382.652374 579.131104,387.400330 578.261353,393.823853 
	C577.475098,399.631195 577.311646,405.858643 578.555603,411.532074 
	C580.833923,421.923492 590.276794,426.718658 600.507019,423.761810 
	C606.202026,422.115753 609.253174,418.157104 609.818970,411.310547 
	C605.243042,411.310547 600.680359,411.310547 595.751221,411.310547 
	C595.751221,407.202209 595.751221,403.500305 595.751221,399.488892 
	C605.547791,399.488892 615.276184,399.488892 625.001526,399.488892 
	C628.331543,420.945801 618.944580,433.404968 604.475647,437.361450 
	C581.614807,443.612762 561.847961,429.175140 560.885681,405.513123 
	C560.353638,392.431519 563.234924,380.744904 574.118530,372.226074 
	C589.550415,360.147247 614.971252,365.403046 622.650269,382.315796 
	C623.658875,384.537323 624.164185,386.987366 625.064697,389.846313 
	C619.916443,389.846313 615.292053,389.933716 610.676392,389.772919 
	C609.747742,389.740570 608.388733,388.985504 608.012939,388.191956 
	C604.366333,380.492188 597.945312,379.243744 590.043213,380.462402 
z"/>
<path fill="#FBFBFB" opacity="1.000000" stroke="none" 
	d="
M690.882263,356.114441 
	C668.199646,356.144958 654.310242,341.214386 655.251038,318.339081 
	C655.945190,301.461517 663.957458,289.493683 677.527832,285.064514 
	C701.730469,277.165253 722.690613,293.630463 722.346191,320.271393 
	C722.075256,341.222748 710.268005,354.869873 690.882263,356.114441 
M704.107605,331.353699 
	C706.724304,323.686401 706.825562,315.988953 704.111755,308.350708 
	C701.651978,301.427643 696.150513,297.586731 688.983704,297.517029 
	C682.074280,297.449829 675.777161,300.869049 674.075562,307.702576 
	C672.476929,314.122467 672.078552,321.148071 672.748962,327.744873 
	C673.507812,335.210846 678.136780,340.579773 686.105957,341.842621 
	C694.021790,343.097046 699.320129,340.082428 704.107605,331.353699 
z"/>
<path fill="#FBFBFB" opacity="1.000000" stroke="none" 
	d="
M651.040649,366.778748 
	C658.106628,366.755524 664.758423,366.755524 671.881592,366.755524 
	C679.757141,390.218445 687.650574,413.734497 695.666016,437.613953 
	C689.649597,437.613953 684.219971,437.613953 678.490967,437.613953 
	C677.255310,433.444702 676.009460,429.348602 674.834595,425.232269 
	C674.246399,423.171600 673.497925,421.917297 670.826843,422.006744 
	C663.356628,422.256897 655.872559,422.093781 648.172424,422.093781 
	C646.807922,426.488800 645.678589,430.818207 644.049744,434.950714 
	C643.561340,436.189789 641.733276,437.591919 640.425720,437.691223 
	C635.967590,438.029724 631.467896,437.820770 626.301819,437.820770 
	C627.240173,434.861298 628.023376,432.259399 628.888062,429.684845 
	C635.488281,410.034149 642.093994,390.385223 648.738342,370.749390 
	C649.202454,369.377655 649.989502,368.115204 651.040649,366.778748 
M665.228394,409.859192 
	C666.711182,409.859192 668.193970,409.859192 670.175659,409.859192 
	C667.717285,401.574219 665.402039,393.652069 662.970154,385.765869 
	C662.734558,385.001892 661.830811,384.027649 661.138977,383.941711 
	C660.490723,383.861206 659.265686,384.692200 659.058777,385.359161 
	C656.573792,393.370483 654.231079,401.425964 651.736023,409.859222 
	C656.334412,409.859222 660.313721,409.859222 665.228394,409.859192 
z"/>
<path fill="#FAFAFA" opacity="1.000000" stroke="none" 
	d="
M899.279785,387.574097 
	C895.876953,387.826111 893.958679,387.412262 892.432129,383.958313 
	C889.788879,377.977539 877.320496,377.285797 873.153809,382.387024 
	C870.598022,385.516083 871.385193,390.146912 875.390625,391.984711 
	C879.269348,393.764343 883.561462,394.634918 887.655762,395.955048 
	C891.278625,397.123138 895.037903,398.023926 898.456909,399.636444 
	C905.801636,403.100494 910.160950,408.802460 910.069397,417.266815 
	C909.977478,425.762390 906.087708,432.101105 898.337708,435.394348 
	C887.447998,440.021790 876.297729,440.020081 865.470703,435.049042 
	C857.252502,431.275818 853.554016,424.408142 853.438782,415.155701 
	C858.349915,415.155701 863.256470,415.155701 868.228516,415.155701 
	C871.609070,423.793549 878.863586,427.641876 887.360718,424.326385 
	C889.997559,423.297516 892.849365,420.272797 893.609619,417.595734 
	C894.671143,413.857880 891.232605,411.732513 887.871704,410.674866 
	C881.857727,408.782410 875.764038,407.144104 869.743530,405.271423 
	C861.675537,402.761841 855.827515,398.090790 855.121277,389.007629 
	C854.450806,380.385284 859.203003,372.955322 867.776855,368.782867 
	C879.995483,362.836731 897.126038,365.423920 904.515930,374.941559 
	C907.085449,378.251007 908.137146,382.739014 910.273193,387.574097 
	C905.684265,387.574097 902.705994,387.574097 899.279785,387.574097 
z"/>
<path fill="#FBFBFB" opacity="1.000000" stroke="none" 
	d="
M840.280273,403.800964 
	C840.211121,405.705536 840.141907,407.168732 840.058594,408.930969 
	C831.303040,408.930969 822.857544,408.930969 814.212952,408.930969 
	C814.212952,414.181366 814.212952,419.119385 814.212952,424.609375 
	C825.005554,424.609375 835.726746,424.609375 846.599365,424.609375 
	C846.599365,429.119019 846.599365,433.079681 846.599365,437.430756 
	C830.488342,437.430756 814.455688,437.430756 798.188477,437.430756 
	C798.188477,413.954651 798.188477,390.526184 798.188477,366.950989 
	C814.241455,366.950989 830.194580,366.950989 846.412964,366.950989 
	C846.412964,371.210144 846.412964,375.276855 846.412964,379.764404 
	C835.677307,379.764404 825.097229,379.764404 814.264832,379.764404 
	C814.264832,385.261810 814.264832,390.343231 814.264832,395.722778 
	C822.879211,395.722778 831.335449,395.722778 840.280212,395.722778 
	C840.280212,398.459167 840.280212,400.909363 840.280273,403.800964 
z"/>
<path fill="#F8F8F8" opacity="1.000000" stroke="none" 
	d="
M727.372070,297.392395 
	C725.925232,296.511719 724.201172,295.711639 724.095398,294.736145 
	C723.739685,291.454346 723.960083,288.110077 723.960083,284.482117 
	C741.587585,284.482117 758.975281,284.482117 776.628052,284.482117 
	C776.628052,288.714264 776.628052,292.803467 776.628052,297.419556 
	C770.651489,297.419556 764.724060,297.419556 758.405396,297.419556 
	C758.405396,316.853943 758.405396,335.771210 758.405396,354.959106 
	C752.939636,354.959106 747.877441,354.959106 742.407104,354.959106 
	C742.407104,338.299561 742.361694,321.839386 742.508850,305.380920 
	C742.518738,304.280792 743.756836,302.763855 744.825928,302.189728 
	C747.083313,300.977417 749.607056,300.261292 752.021545,299.341614 
	C752.007812,298.756409 751.994141,298.171204 751.980408,297.586029 
	C743.932373,297.521545 735.884277,297.457092 727.372070,297.392395 
z"/>
<path fill="#FBFBFB" opacity="1.000000" stroke="none" 
	d="
M530.030212,427.926025 
	C530.030212,431.229065 530.030212,434.046234 530.030212,437.526031 
	C519.822754,435.870789 509.917847,434.299042 500.025635,432.651245 
	C489.202179,430.848358 478.395935,428.941925 467.571625,427.144043 
	C460.101044,425.903198 460.093048,425.951294 459.918121,417.317413 
	C483.087036,414.470551 506.293945,411.619019 530.030212,408.702423 
	C530.030212,415.201172 530.030212,421.320618 530.030212,427.926025 
z"/>
<path fill="#FCFCFC" opacity="1.000000" stroke="none" 
	d="
M632.335266,284.187897 
	C637.091492,284.183136 641.378601,284.183136 645.882080,284.183136 
	C645.882080,308.028595 645.882080,331.416809 645.882080,355.022644 
	C640.638916,355.022644 635.574158,355.022644 630.055908,355.022644 
	C630.055908,348.881561 630.055908,342.928986 630.055908,336.976410 
	C630.055908,320.825623 630.009888,304.674438 630.134644,288.524628 
	C630.145813,287.076263 631.262695,285.636444 632.335266,284.187897 
z"/>
<path fill="#C7C7C7" opacity="1.000000" stroke="none" 
	d="
M912.757202,370.988037 
	C911.285461,365.638580 914.883606,368.501617 916.998779,368.229340 
	C916.201294,369.152069 915.667419,369.769836 914.992493,370.946686 
	C914.153381,371.333221 913.455261,371.160614 912.757202,370.988037 
z"/>
<path fill="#0A0A0A" opacity="1.000000" stroke="none" 
	d="
M912.422302,370.991394 
	C913.455261,371.160614 914.153381,371.333221 915.042297,371.247681 
	C916.041077,371.474945 916.849060,371.960327 917.656982,372.445740 
	C916.186340,373.161438 914.755371,374.286987 913.229675,374.434967 
	C912.352600,374.520050 911.321838,373.021515 910.360291,372.235901 
	C910.936035,371.822205 911.511719,371.408508 912.422302,370.991394 
z"/>
<path fill="#050505" opacity=".005" stroke="none" 
	d="
M598.894531,313.922821 
	C592.666809,315.499298 586.702271,316.795532 580.190186,318.210754 
	C580.190186,310.339600 580.190186,303.993042 580.190186,297.598053 
	C584.369629,297.598053 588.355713,297.174011 592.218567,297.683624 
	C601.111206,298.856781 604.097168,306.012634 598.894531,313.922821 
z"/>
<path fill="#030303" opacity=".005" stroke="none" 
	d="
M704.005615,331.728485 
	C699.320129,340.082428 694.021790,343.097046 686.105957,341.842621 
	C678.136780,340.579773 673.507812,335.210846 672.748962,327.744873 
	C672.078552,321.148071 672.476929,314.122467 674.075562,307.702576 
	C675.777161,300.869049 682.074280,297.449829 688.983704,297.517029 
	C696.150513,297.586731 701.651978,301.427643 704.111755,308.350708 
	C706.825562,315.988953 706.724304,323.686401 704.005615,331.728485 
z"/>
<path fill="#0A0A0A" opacity=".005" stroke="none" 
	d="
M664.760742,409.859192 
	C660.313721,409.859222 656.334412,409.859222 651.736023,409.859222 
	C654.231079,401.425964 656.573792,393.370483 659.058777,385.359161 
	C659.265686,384.692200 660.490723,383.861206 661.138977,383.941711 
	C661.830811,384.027649 662.734558,385.001892 662.970154,385.765869 
	C665.402039,393.652069 667.717285,401.574219 670.175659,409.859192 
	C668.193970,409.859192 666.711182,409.859192 664.760742,409.859192 
z"/>
</svg>